# xmcd
# Copyright (C) 1995-1998 Ti Kan
#
# Track frame offsets:
#       150
#       2770
#       12534
#       20479
#       27421
#       29930
#       40813
#       45975
#       51179
#       56967
#       67441
#       77719
#       83407
#       90247
#       100782
#       103771
#       107453
#       110880
#       114435
#       117462
#       125638
#       133098
#       142475
#       146888
#       155043
#       157390
#       164276
#       169722
#       176536
#       183200
#
# Disc length: 2631 seconds
#
# Revision: 0
# Processed by: cddbd v1.5.2PL0 Copyright (c) Steve Scherf et al.
# Submitted via: CD-Transfer v1.0
#
DISCID=b60a451e
DTITLE=Fantômas - Suspended Animation
DYEAR=05
DGENRE=
TTITLE0=04/01/05 Friday
TTITLE1=04/02/05 Saturday
TTITLE2=04/03/05 Sunday
TTITLE3=04/04/05 Monday
TTITLE4=04/05/05 Tuesday
TTITLE5=04/06/05 Wednesday
TTITLE6=04/07/05 Thursday
TTITLE7=04/08/05 Friday
TTITLE8=04/09/05 Saturday
TTITLE9=04/10/05 Sunday
TTITLE10=04/11/05 Monday
TTITLE11=04/12/05 Tuesday
TTITLE12=04/13/05 Wednesday
TTITLE13=04/14/05 Thursday
TTITLE14=04/15/05 Friday
TTITLE15=04/16/05 Saturday
TTITLE16=04/17/05 Sunday
TTITLE17=04/18/05 Monday
TTITLE18=04/19/05 Tuesday
TTITLE19=04/20/05 Wednesday
TTITLE20=04/21/05 Thursday
TTITLE21=04/22/05 Friday
TTITLE22=04/23/05 Saturday
TTITLE23=04/24/05 Sunday
TTITLE24=04/25/05 Monday
TTITLE25=04/26/05 Tuesday
TTITLE26=04/27/05 Wednesday
TTITLE27=04/28/05 Thursday
TTITLE28=04/29/05 Friday
TTITLE29=04/30/05 Saturday
EXTD=
EXTT0=
EXTT1=
EXTT2=
EXTT3=
EXTT4=
EXTT5=
EXTT6=
EXTT7=
EXTT8=
EXTT9=
EXTT10=
EXTT11=
EXTT12=
EXTT13=
EXTT14=
EXTT15=
EXTT16=
EXTT17=
EXTT18=
EXTT19=
EXTT20=
EXTT21=
EXTT22=
EXTT23=
EXTT24=
EXTT25=
EXTT26=
EXTT27=
EXTT28=
EXTT29=
PLAYORDER=
